# xmcd CD database file
# Copyright (C) 1993-1998 Ti Kan
#
# Track frame offsets:
#  150
#  12393
#  23618
#  35310
#  47430
#  58173
#  70678
#  80900
#  91318
#  103125
#  113393
#  124870
#  137570
#  152775
#  163548
#  175568
#  189423
#  201840
#
# Disc length: 2880 seconds
#
# Revision: 1
# Processed by: cddbd v1.4b41PL1 Copyright (c) Steve Scherf et al.
# Submitted via: CDWizzard Release:4.35
#
DISCID=e20b3e12
DTITLE=Various Artist - Paragons Meet The Jesters
DYEAR=1900
DGENRE=
TTITLE0=Paragons - Florence
TTITLE1=Jesters - Please Let Me Love You
TTITLE2=Jesters - So Strange
TTITLE3=Paragons - Let's Start All Over Again
TTITLE4=Jesters - Now That You're Gone
TTITLE5=Paragons - The Vows Of Love
TTITLE6=Paragons - Hey Little School Girl
TTITLE7=Jesters - I'm Falling In Love
TTITLE8=Jesters - Love No One But You
TTITLE9=Paragons - Stick With Me Baby 
TTITLE10=Jesters - I Laughed
TTITLE11=Paragons - Twilight
TTITLE12=Jesters - The Wind
TTITLE13=Paragons - Two Hearts Are Better Than One
TTITLE14=Jesters - Oh Baby
TTITLE15=Paragons - Vows Of Love (Previously Unreleased)
TTITLE16=Jesters - The Plea
TTITLE17=Paragons - Twilight (Unreleased Alternate)
EXTD=
EXTT0=
EXTT1=
EXTT2=
EXTT3=
EXTT4=
EXTT5=
EXTT6=
EXTT7=
EXTT8=
EXTT9=
EXTT10=
EXTT11=
EXTT12=
EXTT13=
EXTT14=
EXTT15=
EXTT16=
EXTT17=
PLAYORDER=
